<mxfile host="app.diagrams.net" modified="2023-03-18T07:32:47.147Z" agent="5.0 (Macintosh; Intel Mac OS X 10_15_7) AppleWebKit/537.36 (KHTML, like Gecko) Chrome/110.0.0.0 Safari/537.36" etag="JmhoiWKeIkriwxXfB3xS" version="20.8.23" type="github">
  <diagram name="第 1 页" id="6jesLJs8gwc90mUtcWjR">
    <mxGraphModel dx="2070" dy="1327" grid="1" gridSize="10" guides="1" tooltips="1" connect="1" arrows="1" fold="1" page="1" pageScale="1" pageWidth="827" pageHeight="1169" math="0" shadow="0">
      <root>
        <mxCell id="0" />
        <mxCell id="1" parent="0" />
        <mxCell id="hYuFPZrj5cTID_84Zuv2-1" value="" style="rounded=1;whiteSpace=wrap;html=1;dashed=1;strokeColor=default;fontColor=#FFFFFF;fillColor=none;" vertex="1" parent="1">
          <mxGeometry x="882" y="302.03999999999996" width="153" height="297.96" as="geometry" />
        </mxCell>
        <mxCell id="hYuFPZrj5cTID_84Zuv2-2" value="" style="rounded=1;whiteSpace=wrap;html=1;strokeColor=default;fillColor=none;dashed=1;" vertex="1" parent="1">
          <mxGeometry x="435.08000000000004" y="80" width="241" height="140" as="geometry" />
        </mxCell>
        <mxCell id="hYuFPZrj5cTID_84Zuv2-3" style="edgeStyle=orthogonalEdgeStyle;rounded=0;orthogonalLoop=1;jettySize=auto;html=1;exitX=1;exitY=0.75;exitDx=0;exitDy=0;entryX=0;entryY=0.5;entryDx=0;entryDy=0;strokeWidth=1;" edge="1" parent="1" source="hYuFPZrj5cTID_84Zuv2-4" target="hYuFPZrj5cTID_84Zuv2-31">
          <mxGeometry relative="1" as="geometry">
            <Array as="points">
              <mxPoint x="339" y="808" />
            </Array>
          </mxGeometry>
        </mxCell>
        <mxCell id="hYuFPZrj5cTID_84Zuv2-4" value="" style="swimlane;startSize=0;rounded=1;arcSize=38;fillColor=#f5f5f5;fontColor=#333333;strokeColor=#666666;" vertex="1" parent="1">
          <mxGeometry x="149" y="723" width="190" height="180" as="geometry">
            <mxRectangle x="60" y="825" width="50" height="40" as="alternateBounds" />
          </mxGeometry>
        </mxCell>
        <mxCell id="hYuFPZrj5cTID_84Zuv2-5" value="单量趋势" style="shape=document;whiteSpace=wrap;html=1;boundedLbl=1;rounded=1;fillColor=#f5f5f5;fontColor=#333333;strokeColor=#666666;" vertex="1" parent="hYuFPZrj5cTID_84Zuv2-4">
          <mxGeometry x="14" y="30" width="76" height="40" as="geometry" />
        </mxCell>
        <mxCell id="hYuFPZrj5cTID_84Zuv2-6" value="基础画像" style="shape=document;whiteSpace=wrap;html=1;boundedLbl=1;rounded=1;fillColor=#f5f5f5;fontColor=#333333;strokeColor=#666666;" vertex="1" parent="hYuFPZrj5cTID_84Zuv2-4">
          <mxGeometry x="100" y="30" width="76" height="40" as="geometry" />
        </mxCell>
        <mxCell id="hYuFPZrj5cTID_84Zuv2-7" value="行业" style="shape=document;whiteSpace=wrap;html=1;boundedLbl=1;rounded=1;fillColor=#f5f5f5;fontColor=#333333;strokeColor=#666666;" vertex="1" parent="hYuFPZrj5cTID_84Zuv2-4">
          <mxGeometry x="14" y="80" width="76" height="40" as="geometry" />
        </mxCell>
        <mxCell id="hYuFPZrj5cTID_84Zuv2-8" value="签约" style="shape=document;whiteSpace=wrap;html=1;boundedLbl=1;rounded=1;fillColor=#f5f5f5;fontColor=#333333;strokeColor=#666666;" vertex="1" parent="hYuFPZrj5cTID_84Zuv2-4">
          <mxGeometry x="100" y="80" width="76" height="40" as="geometry" />
        </mxCell>
        <mxCell id="hYuFPZrj5cTID_84Zuv2-9" value="节假日" style="shape=document;whiteSpace=wrap;html=1;boundedLbl=1;rounded=1;fillColor=#f5f5f5;fontColor=#333333;strokeColor=#666666;" vertex="1" parent="hYuFPZrj5cTID_84Zuv2-4">
          <mxGeometry x="14" y="135" width="76" height="40" as="geometry" />
        </mxCell>
        <mxCell id="hYuFPZrj5cTID_84Zuv2-10" value="..." style="text;html=1;align=center;verticalAlign=middle;resizable=0;points=[];autosize=1;strokeColor=none;fillColor=none;fontColor=#333333;" vertex="1" parent="hYuFPZrj5cTID_84Zuv2-4">
          <mxGeometry x="123" y="135" width="30" height="30" as="geometry" />
        </mxCell>
        <mxCell id="hYuFPZrj5cTID_84Zuv2-11" style="edgeStyle=orthogonalEdgeStyle;rounded=0;orthogonalLoop=1;jettySize=auto;html=1;exitX=0.5;exitY=0;exitDx=0;exitDy=0;entryX=0.5;entryY=1;entryDx=0;entryDy=0;" edge="1" parent="1" source="hYuFPZrj5cTID_84Zuv2-12" target="hYuFPZrj5cTID_84Zuv2-25">
          <mxGeometry relative="1" as="geometry" />
        </mxCell>
        <mxCell id="hYuFPZrj5cTID_84Zuv2-12" value="二分类预估" style="shape=datastore;whiteSpace=wrap;html=1;rounded=1;glass=0;sketch=0;strokeWidth=1;fillColor=#FFCC99;fontColor=#333333;strokeColor=#666666;" vertex="1" parent="1">
          <mxGeometry x="515.29" y="621" width="80.5" height="60" as="geometry" />
        </mxCell>
        <mxCell id="hYuFPZrj5cTID_84Zuv2-13" value="&lt;font&gt;客经拜访&lt;/font&gt;" style="rounded=1;whiteSpace=wrap;html=1;glass=0;sketch=0;strokeWidth=1;fillColor=#f8cecc;strokeColor=none;fontColor=#000000;" vertex="1" parent="1">
          <mxGeometry x="505.01" y="90" width="101.13" height="37" as="geometry" />
        </mxCell>
        <mxCell id="hYuFPZrj5cTID_84Zuv2-14" value="" style="shape=loopLimit;whiteSpace=wrap;html=1;rounded=0;sketch=0;size=20;fillColor=#dae8fc;strokeColor=#6c8ebf;" vertex="1" parent="1">
          <mxGeometry x="203.69" y="540" width="78.92" height="91" as="geometry" />
        </mxCell>
        <mxCell id="hYuFPZrj5cTID_84Zuv2-16" style="edgeStyle=orthogonalEdgeStyle;rounded=0;orthogonalLoop=1;jettySize=auto;html=1;exitX=1;exitY=1;exitDx=0;exitDy=0;entryX=0.044;entryY=0.521;entryDx=0;entryDy=0;entryPerimeter=0;" edge="1" parent="1" source="hYuFPZrj5cTID_84Zuv2-18" target="hYuFPZrj5cTID_84Zuv2-49">
          <mxGeometry relative="1" as="geometry">
            <Array as="points">
              <mxPoint x="360" y="585" />
              <mxPoint x="360" y="651" />
              <mxPoint x="390" y="651" />
            </Array>
            <mxPoint x="390" y="630" as="targetPoint" />
          </mxGeometry>
        </mxCell>
        <mxCell id="hYuFPZrj5cTID_84Zuv2-18" value="标签系统" style="text;html=1;strokeColor=none;fillColor=none;align=center;verticalAlign=middle;whiteSpace=wrap;rounded=0;sketch=0;" vertex="1" parent="1">
          <mxGeometry x="204.61" y="555" width="80" height="30" as="geometry" />
        </mxCell>
        <mxCell id="hYuFPZrj5cTID_84Zuv2-19" value="" style="endArrow=none;html=1;rounded=0;exitX=-0.01;exitY=0.572;exitDx=0;exitDy=0;exitPerimeter=0;fillColor=#dae8fc;strokeColor=#6c8ebf;" edge="1" parent="1">
          <mxGeometry width="50" height="50" relative="1" as="geometry">
            <mxPoint x="203.39999999999998" y="597.9000000000001" as="sourcePoint" />
            <mxPoint x="280.90000000000003" y="597.9000000000001" as="targetPoint" />
          </mxGeometry>
        </mxCell>
        <mxCell id="hYuFPZrj5cTID_84Zuv2-20" value="用户分层" style="text;html=1;align=center;verticalAlign=middle;resizable=0;points=[];autosize=1;strokeColor=none;fillColor=none;" vertex="1" parent="1">
          <mxGeometry x="209.11" y="597" width="70" height="30" as="geometry" />
        </mxCell>
        <mxCell id="hYuFPZrj5cTID_84Zuv2-21" value="" style="endArrow=classic;html=1;rounded=0;strokeWidth=1;exitX=0.5;exitY=0;exitDx=0;exitDy=0;" edge="1" parent="1" source="hYuFPZrj5cTID_84Zuv2-4">
          <mxGeometry width="50" height="50" relative="1" as="geometry">
            <mxPoint x="340.92" y="552" as="sourcePoint" />
            <mxPoint x="243.92000000000002" y="630" as="targetPoint" />
          </mxGeometry>
        </mxCell>
        <mxCell id="hYuFPZrj5cTID_84Zuv2-22" value="" style="endArrow=none;dashed=1;html=1;dashPattern=1 3;strokeWidth=2;rounded=0;" edge="1" parent="1">
          <mxGeometry width="50" height="50" relative="1" as="geometry">
            <mxPoint x="185" y="422" as="sourcePoint" />
            <mxPoint x="845" y="422" as="targetPoint" />
          </mxGeometry>
        </mxCell>
        <mxCell id="hYuFPZrj5cTID_84Zuv2-23" style="edgeStyle=orthogonalEdgeStyle;rounded=0;orthogonalLoop=1;jettySize=auto;html=1;exitX=0.5;exitY=0;exitDx=0;exitDy=0;" edge="1" parent="1" source="hYuFPZrj5cTID_84Zuv2-25">
          <mxGeometry relative="1" as="geometry">
            <mxPoint x="555" y="370" as="targetPoint" />
          </mxGeometry>
        </mxCell>
        <mxCell id="hYuFPZrj5cTID_84Zuv2-24" style="edgeStyle=orthogonalEdgeStyle;rounded=0;orthogonalLoop=1;jettySize=auto;html=1;exitX=1;exitY=0.5;exitDx=0;exitDy=0;entryX=0;entryY=0.5;entryDx=0;entryDy=0;strokeColor=#000000;fontColor=#000000;" edge="1" parent="1" source="hYuFPZrj5cTID_84Zuv2-25" target="hYuFPZrj5cTID_84Zuv2-1">
          <mxGeometry relative="1" as="geometry" />
        </mxCell>
        <mxCell id="hYuFPZrj5cTID_84Zuv2-25" value="" style="shape=loopLimit;whiteSpace=wrap;html=1;rounded=0;sketch=0;size=20;container=0;fillColor=#FFCC99;fontColor=#333333;strokeColor=#666666;" vertex="1" parent="1">
          <mxGeometry x="476.08" y="451" width="158.92" height="69" as="geometry" />
        </mxCell>
        <mxCell id="hYuFPZrj5cTID_84Zuv2-26" value="" style="endArrow=none;html=1;rounded=0;entryX=0.999;entryY=0.538;entryDx=0;entryDy=0;exitX=0.003;exitY=0.536;exitDx=0;exitDy=0;exitPerimeter=0;entryPerimeter=0;fillColor=#f5f5f5;strokeColor=#666666;" edge="1" parent="1" source="hYuFPZrj5cTID_84Zuv2-25" target="hYuFPZrj5cTID_84Zuv2-25">
          <mxGeometry width="50" height="50" relative="1" as="geometry">
            <mxPoint x="476.0799999999999" y="490.0867692307693" as="sourcePoint" />
            <mxPoint x="596.9200000000001" y="489.2209230769231" as="targetPoint" />
          </mxGeometry>
        </mxCell>
        <mxCell id="hYuFPZrj5cTID_84Zuv2-27" value="名单去重" style="text;html=1;strokeColor=none;fillColor=none;align=center;verticalAlign=middle;whiteSpace=wrap;rounded=0;sketch=0;container=0;fontColor=#333333;" vertex="1" parent="1">
          <mxGeometry x="566.9999999999999" y="489.99692307692317" width="59.999999999999936" height="30.92307692307692" as="geometry" />
        </mxCell>
        <mxCell id="hYuFPZrj5cTID_84Zuv2-28" value="模型预估" style="text;html=1;strokeColor=none;fillColor=none;align=center;verticalAlign=middle;whiteSpace=wrap;rounded=0;sketch=0;container=0;fontColor=#333333;" vertex="1" parent="1">
          <mxGeometry x="501" y="458.03999999999996" width="110" height="30.92" as="geometry" />
        </mxCell>
        <mxCell id="hYuFPZrj5cTID_84Zuv2-29" value="人工干预" style="text;html=1;align=center;verticalAlign=middle;resizable=0;points=[];autosize=1;strokeColor=none;fillColor=none;container=0;fontColor=#333333;" vertex="1" parent="1">
          <mxGeometry x="480.58000000000004" y="489.99692307692317" width="70" height="30" as="geometry" />
        </mxCell>
        <mxCell id="hYuFPZrj5cTID_84Zuv2-31" value="模型工厂" style="shape=process;whiteSpace=wrap;html=1;backgroundOutline=1;rounded=1;glass=0;sketch=0;strokeWidth=1;size=0.3333333333333333;fillColor=#FFCC99;fontColor=#333333;strokeColor=#666666;" vertex="1" parent="1">
          <mxGeometry x="430" y="782.5" width="300" height="51" as="geometry" />
        </mxCell>
        <mxCell id="hYuFPZrj5cTID_84Zuv2-32" value="特征工程" style="text;html=1;align=center;verticalAlign=middle;resizable=0;points=[];autosize=1;strokeColor=none;fillColor=none;fontColor=#333333;" vertex="1" parent="1">
          <mxGeometry x="450" y="793" width="70" height="30" as="geometry" />
        </mxCell>
        <mxCell id="hYuFPZrj5cTID_84Zuv2-33" value="离线评估" style="text;html=1;align=center;verticalAlign=middle;resizable=0;points=[];autosize=1;strokeColor=none;fillColor=none;fontColor=#333333;" vertex="1" parent="1">
          <mxGeometry x="640" y="793" width="70" height="30" as="geometry" />
        </mxCell>
        <mxCell id="hYuFPZrj5cTID_84Zuv2-34" value="算法预估" style="text;html=1;align=center;verticalAlign=middle;resizable=0;points=[];autosize=1;strokeColor=none;fillColor=none;" vertex="1" parent="1">
          <mxGeometry x="197" y="432.5" width="70" height="30" as="geometry" />
        </mxCell>
        <mxCell id="hYuFPZrj5cTID_84Zuv2-35" value="名单分发" style="text;html=1;align=center;verticalAlign=middle;resizable=0;points=[];autosize=1;strokeColor=none;fillColor=none;" vertex="1" parent="1">
          <mxGeometry x="196" y="380" width="70" height="30" as="geometry" />
        </mxCell>
        <mxCell id="hYuFPZrj5cTID_84Zuv2-36" value="星图数仓" style="text;html=1;align=center;verticalAlign=middle;resizable=0;points=[];autosize=1;strokeColor=none;fillColor=none;" vertex="1" parent="1">
          <mxGeometry x="156" y="720" width="70" height="30" as="geometry" />
        </mxCell>
        <mxCell id="hYuFPZrj5cTID_84Zuv2-37" value="" style="endArrow=none;dashed=1;html=1;dashPattern=1 3;strokeWidth=2;rounded=0;" edge="1" parent="1">
          <mxGeometry width="50" height="50" relative="1" as="geometry">
            <mxPoint x="185" y="232" as="sourcePoint" />
            <mxPoint x="845" y="232" as="targetPoint" />
          </mxGeometry>
        </mxCell>
        <mxCell id="hYuFPZrj5cTID_84Zuv2-38" value="业务系统" style="text;html=1;align=center;verticalAlign=middle;resizable=0;points=[];autosize=1;strokeColor=none;fillColor=none;" vertex="1" parent="1">
          <mxGeometry x="196" y="202" width="70" height="30" as="geometry" />
        </mxCell>
        <mxCell id="hYuFPZrj5cTID_84Zuv2-39" value="CRM系统" style="rounded=1;whiteSpace=wrap;html=1;glass=0;sketch=0;strokeWidth=1;fillColor=#f8cecc;strokeColor=none;" vertex="1" parent="1">
          <mxGeometry x="503.87" y="165" width="103.42" height="37" as="geometry" />
        </mxCell>
        <mxCell id="hYuFPZrj5cTID_84Zuv2-40" style="edgeStyle=orthogonalEdgeStyle;rounded=0;orthogonalLoop=1;jettySize=auto;html=1;exitX=1;exitY=0.5;exitDx=0;exitDy=0;entryX=0;entryY=0.5;entryDx=0;entryDy=0;" edge="1" parent="1" source="hYuFPZrj5cTID_84Zuv2-41" target="hYuFPZrj5cTID_84Zuv2-14">
          <mxGeometry relative="1" as="geometry" />
        </mxCell>
        <mxCell id="hYuFPZrj5cTID_84Zuv2-41" value="存量客户池" style="ellipse;whiteSpace=wrap;html=1;fillColor=#f5f5f5;fontColor=#333333;strokeColor=#666666;" vertex="1" parent="1">
          <mxGeometry x="50" y="559" width="87" height="53" as="geometry" />
        </mxCell>
        <mxCell id="hYuFPZrj5cTID_84Zuv2-48" style="edgeStyle=orthogonalEdgeStyle;rounded=0;orthogonalLoop=1;jettySize=auto;html=1;exitX=0.955;exitY=0.502;exitDx=0;exitDy=0;entryX=0;entryY=0.5;entryDx=0;entryDy=0;exitPerimeter=0;" edge="1" parent="1" source="hYuFPZrj5cTID_84Zuv2-49" target="hYuFPZrj5cTID_84Zuv2-12">
          <mxGeometry relative="1" as="geometry">
            <Array as="points">
              <mxPoint x="453" y="651" />
            </Array>
          </mxGeometry>
        </mxCell>
        <mxCell id="hYuFPZrj5cTID_84Zuv2-49" value="成长挖潜" style="rhombus;whiteSpace=wrap;html=1;rounded=1;fillColor=#dae8fc;strokeColor=#6c8ebf;" vertex="1" parent="1">
          <mxGeometry x="387" y="619" width="66" height="63" as="geometry" />
        </mxCell>
        <mxCell id="hYuFPZrj5cTID_84Zuv2-52" value="" style="endArrow=classic;html=1;rounded=0;entryX=0.5;entryY=1;entryDx=0;entryDy=0;exitX=0.418;exitY=0.02;exitDx=0;exitDy=0;exitPerimeter=0;" edge="1" parent="1" source="hYuFPZrj5cTID_84Zuv2-31" target="hYuFPZrj5cTID_84Zuv2-12">
          <mxGeometry width="50" height="50" relative="1" as="geometry">
            <mxPoint x="556" y="830" as="sourcePoint" />
            <mxPoint x="545" y="780" as="targetPoint" />
          </mxGeometry>
        </mxCell>
        <mxCell id="hYuFPZrj5cTID_84Zuv2-54" value="" style="endArrow=none;html=1;rounded=0;exitX=0.5;exitY=1;exitDx=0;exitDy=0;entryX=0.5;entryY=1;entryDx=0;entryDy=0;" edge="1" parent="1" source="hYuFPZrj5cTID_84Zuv2-25" target="hYuFPZrj5cTID_84Zuv2-28">
          <mxGeometry width="50" height="50" relative="1" as="geometry">
            <mxPoint x="545" y="540" as="sourcePoint" />
            <mxPoint x="555" y="490" as="targetPoint" />
          </mxGeometry>
        </mxCell>
        <mxCell id="hYuFPZrj5cTID_84Zuv2-55" style="edgeStyle=orthogonalEdgeStyle;rounded=0;orthogonalLoop=1;jettySize=auto;html=1;exitX=0.5;exitY=0;exitDx=0;exitDy=0;entryX=0.5;entryY=1;entryDx=0;entryDy=0;strokeColor=#000000;fontColor=#000000;" edge="1" parent="1" source="hYuFPZrj5cTID_84Zuv2-57" target="hYuFPZrj5cTID_84Zuv2-2">
          <mxGeometry relative="1" as="geometry">
            <mxPoint x="675.75" y="220" as="targetPoint" />
          </mxGeometry>
        </mxCell>
        <mxCell id="hYuFPZrj5cTID_84Zuv2-56" style="edgeStyle=orthogonalEdgeStyle;rounded=0;orthogonalLoop=1;jettySize=auto;html=1;exitX=1;exitY=0.5;exitDx=0;exitDy=0;entryX=0;entryY=0.5;entryDx=0;entryDy=0;strokeColor=#000000;fontColor=#000000;" edge="1" parent="1" source="hYuFPZrj5cTID_84Zuv2-57" target="hYuFPZrj5cTID_84Zuv2-1">
          <mxGeometry relative="1" as="geometry" />
        </mxCell>
        <mxCell id="hYuFPZrj5cTID_84Zuv2-57" value="" style="shape=loopLimit;whiteSpace=wrap;html=1;rounded=0;sketch=0;size=20;container=0;fillColor=#d5e8d4;strokeColor=#000000;" vertex="1" parent="1">
          <mxGeometry x="476.08" y="302.03999999999996" width="158.92" height="69" as="geometry" />
        </mxCell>
        <mxCell id="hYuFPZrj5cTID_84Zuv2-58" value="" style="endArrow=none;html=1;rounded=0;entryX=0.999;entryY=0.538;entryDx=0;entryDy=0;exitX=0.003;exitY=0.536;exitDx=0;exitDy=0;exitPerimeter=0;entryPerimeter=0;fillColor=#d5e8d4;strokeColor=#000000;" edge="1" parent="1" source="hYuFPZrj5cTID_84Zuv2-57" target="hYuFPZrj5cTID_84Zuv2-57">
          <mxGeometry width="50" height="50" relative="1" as="geometry">
            <mxPoint x="476.0799999999999" y="341.12676923076924" as="sourcePoint" />
            <mxPoint x="596.9200000000001" y="340.26092307692306" as="targetPoint" />
          </mxGeometry>
        </mxCell>
        <mxCell id="hYuFPZrj5cTID_84Zuv2-59" value="AB实验" style="text;html=1;strokeColor=none;fillColor=#d5e8d4;align=center;verticalAlign=middle;whiteSpace=wrap;rounded=0;sketch=0;container=0;" vertex="1" parent="1">
          <mxGeometry x="566" y="346" width="60" height="20" as="geometry" />
        </mxCell>
        <mxCell id="hYuFPZrj5cTID_84Zuv2-60" value="分发决策" style="text;html=1;strokeColor=none;fillColor=#d5e8d4;align=center;verticalAlign=middle;whiteSpace=wrap;rounded=0;sketch=0;container=0;" vertex="1" parent="1">
          <mxGeometry x="501" y="309.0799999999999" width="114" height="20.92" as="geometry" />
        </mxCell>
        <mxCell id="hYuFPZrj5cTID_84Zuv2-61" value="" style="endArrow=none;html=1;rounded=0;exitX=0.5;exitY=1;exitDx=0;exitDy=0;fillColor=#d5e8d4;strokeColor=#000000;" edge="1" parent="1" source="hYuFPZrj5cTID_84Zuv2-57">
          <mxGeometry width="50" height="50" relative="1" as="geometry">
            <mxPoint x="545" y="391.03999999999996" as="sourcePoint" />
            <mxPoint x="555" y="340" as="targetPoint" />
          </mxGeometry>
        </mxCell>
        <mxCell id="hYuFPZrj5cTID_84Zuv2-62" value="过滤机制" style="text;html=1;strokeColor=none;fillColor=#d5e8d4;align=center;verticalAlign=middle;whiteSpace=wrap;rounded=0;sketch=0;container=0;" vertex="1" parent="1">
          <mxGeometry x="484" y="346" width="60" height="20" as="geometry" />
        </mxCell>
        <mxCell id="hYuFPZrj5cTID_84Zuv2-63" value="客户拜访" style="text;html=1;align=center;verticalAlign=middle;resizable=0;points=[];autosize=1;strokeColor=none;fillColor=none;fontColor=#000000;" vertex="1" parent="1">
          <mxGeometry x="605.58" y="190" width="70" height="30" as="geometry" />
        </mxCell>
        <mxCell id="hYuFPZrj5cTID_84Zuv2-64" style="edgeStyle=orthogonalEdgeStyle;rounded=0;orthogonalLoop=1;jettySize=auto;html=1;exitX=1;exitY=0.5;exitDx=0;exitDy=0;entryX=0.5;entryY=0;entryDx=0;entryDy=0;strokeColor=#000000;fontColor=#000000;" edge="1" parent="1" source="hYuFPZrj5cTID_84Zuv2-2" target="hYuFPZrj5cTID_84Zuv2-1">
          <mxGeometry relative="1" as="geometry">
            <mxPoint x="796.25" y="150" as="sourcePoint" />
          </mxGeometry>
        </mxCell>
        <mxCell id="hYuFPZrj5cTID_84Zuv2-65" value="增单率" style="rounded=1;whiteSpace=wrap;html=1;fillColor=#808080;fontColor=#FFFFFF;strokeColor=#666666;" vertex="1" parent="1">
          <mxGeometry x="905" y="384" width="107" height="45" as="geometry" />
        </mxCell>
        <mxCell id="hYuFPZrj5cTID_84Zuv2-66" value="客单价" style="rounded=1;whiteSpace=wrap;html=1;fillColor=#808080;fontColor=#FFFFFF;strokeColor=#666666;" vertex="1" parent="1">
          <mxGeometry x="905" y="321" width="107" height="45" as="geometry" />
        </mxCell>
        <mxCell id="hYuFPZrj5cTID_84Zuv2-67" value="模型准确率" style="rounded=1;whiteSpace=wrap;html=1;fillColor=#808080;fontColor=#FFFFFF;strokeColor=#666666;" vertex="1" parent="1">
          <mxGeometry x="905" y="451" width="107" height="45" as="geometry" />
        </mxCell>
        <mxCell id="hYuFPZrj5cTID_84Zuv2-68" value="数据监控体系" style="text;html=1;align=center;verticalAlign=middle;resizable=0;points=[];autosize=1;strokeColor=none;fillColor=none;fontColor=#000000;" vertex="1" parent="1">
          <mxGeometry x="943" y="567" width="100" height="30" as="geometry" />
        </mxCell>
        <mxCell id="hYuFPZrj5cTID_84Zuv2-69" value="拜访率" style="rounded=1;whiteSpace=wrap;html=1;fillColor=#808080;fontColor=#FFFFFF;strokeColor=#666666;" vertex="1" parent="1">
          <mxGeometry x="905" y="520" width="107" height="45" as="geometry" />
        </mxCell>
        <mxCell id="hYuFPZrj5cTID_84Zuv2-70" value="" style="endArrow=classic;html=1;rounded=0;entryX=0.394;entryY=0.999;entryDx=0;entryDy=0;exitX=0.388;exitY=-0.022;exitDx=0;exitDy=0;entryPerimeter=0;exitPerimeter=0;" edge="1" parent="1" source="hYuFPZrj5cTID_84Zuv2-39" target="hYuFPZrj5cTID_84Zuv2-13">
          <mxGeometry width="50" height="50" relative="1" as="geometry">
            <mxPoint x="545" y="180" as="sourcePoint" />
            <mxPoint x="595" y="130" as="targetPoint" />
          </mxGeometry>
        </mxCell>
        <mxCell id="hYuFPZrj5cTID_84Zuv2-71" value="任务下发" style="edgeLabel;html=1;align=center;verticalAlign=middle;resizable=0;points=[];" vertex="1" connectable="0" parent="hYuFPZrj5cTID_84Zuv2-70">
          <mxGeometry x="0.4802" relative="1" as="geometry">
            <mxPoint x="-30" y="6" as="offset" />
          </mxGeometry>
        </mxCell>
        <mxCell id="hYuFPZrj5cTID_84Zuv2-72" value="" style="endArrow=classic;html=1;rounded=0;entryX=0.614;entryY=0.004;entryDx=0;entryDy=0;exitX=0.62;exitY=1.017;exitDx=0;exitDy=0;exitPerimeter=0;entryPerimeter=0;" edge="1" parent="1" source="hYuFPZrj5cTID_84Zuv2-13" target="hYuFPZrj5cTID_84Zuv2-39">
          <mxGeometry width="50" height="50" relative="1" as="geometry">
            <mxPoint x="545" y="180" as="sourcePoint" />
            <mxPoint x="595" y="130" as="targetPoint" />
          </mxGeometry>
        </mxCell>
        <mxCell id="hYuFPZrj5cTID_84Zuv2-73" value="数据回收" style="edgeLabel;html=1;align=center;verticalAlign=middle;resizable=0;points=[];" vertex="1" connectable="0" parent="hYuFPZrj5cTID_84Zuv2-72">
          <mxGeometry x="0.0551" y="1" relative="1" as="geometry">
            <mxPoint x="28" y="-2" as="offset" />
          </mxGeometry>
        </mxCell>
        <mxCell id="hYuFPZrj5cTID_84Zuv2-74" value="营业部签约客户" style="text;html=1;align=center;verticalAlign=middle;resizable=0;points=[];autosize=1;strokeColor=none;fillColor=none;" vertex="1" parent="1">
          <mxGeometry x="304" y="559" width="110" height="30" as="geometry" />
        </mxCell>
      </root>
    </mxGraphModel>
  </diagram>
</mxfile>
